HIERARCHY
ROOT Hips
{
	OFFSET 0.000000 0.000000 0.000000
	CHANNELS 6 Xposition Yposition Zposition Zrotation Yrotation Xrotation 
	JOINT LowerBack
	{
		OFFSET 0.000000 0.000000 0.000000
		CHANNELS 3 Zrotation Yrotation Xrotation
		JOINT Spine
		{
			OFFSET 0.028270 2.035590 -0.193380
			CHANNELS 3 Zrotation Yrotation Xrotation
			JOINT Spine1
			{
				OFFSET 0.056720 2.048850 -0.042750
				CHANNELS 3 Zrotation Yrotation Xrotation
				JOINT Neck
				{
					OFFSET 0.000000 0.000000 0.000000
					CHANNELS 3 Zrotation Yrotation Xrotation
					JOINT Neck1
					{
						OFFSET -0.054170 1.746240 0.172020
						CHANNELS 3 Zrotation Yrotation Xrotation
						JOINT Head
						{
							OFFSET 0.104070 1.761360 -0.123970
							CHANNELS 3 Zrotation Yrotation Xrotation
							End Site
							{
								OFFSET 0.000000 0.000000 0.000000
							}
						}
					}
				}
				JOINT LeftShoulder
				{
					OFFSET 0.000000 0.000000 0.000000
					CHANNELS 3 Zrotation Yrotation Xrotation
					JOINT LeftArm
					{
						OFFSET 3.362410 1.200890 -0.311210
						CHANNELS 3 Zrotation Yrotation Xrotation
						JOINT LeftForeArm
						{
							OFFSET 4.983000 -0.000000 -0.000000
							CHANNELS 3 Zrotation Yrotation Xrotation
							JOINT LeftHand
							{
								OFFSET 3.483560 -0.000000 -0.000000
								CHANNELS 3 Zrotation Yrotation Xrotation
								JOINT LeftFingerBase
								{
									OFFSET 0.000000 0.000000 0.000000
									CHANNELS 3 Zrotation Yrotation Xrotation
									JOINT LeftHandIndex1
									{
										OFFSET 0.715260 -0.000000 -0.000000
										CHANNELS 3 Zrotation Yrotation Xrotation
										End Site
										{
											OFFSET 0.000000 0.000000 0.000000
										}
									}
								}
								JOINT LThumb
								{
									OFFSET 0.000000 0.000000 0.000000
									CHANNELS 3 Zrotation Yrotation Xrotation
									End Site
									{
										OFFSET 0.000000 0.000000 0.000000
									}
								}
							}
						}
					}
				}
				JOINT RightShoulder
				{
					OFFSET 0.000000 0.000000 0.000000
					CHANNELS 3 Zrotation Yrotation Xrotation
					JOINT RightArm
					{
						OFFSET -3.136600 1.374050 -0.404650
						CHANNELS 3 Zrotation Yrotation Xrotation
						JOINT RightForeArm
						{
							OFFSET -5.241900 -0.000000 -0.000000
							CHANNELS 3 Zrotation Yrotation Xrotation
							JOINT RightHand
							{
								OFFSET -3.444170 -0.000000 -0.000000
								CHANNELS 3 Zrotation Yrotation Xrotation
								JOINT RightFingerBase
								{
									OFFSET 0.000000 0.000000 0.000000
									CHANNELS 3 Zrotation Yrotation Xrotation
									JOINT RightHandIndex1
									{
										OFFSET -0.622530 -0.000000 -0.000000
										CHANNELS 3 Zrotation Yrotation Xrotation
										End Site
										{
											OFFSET 0.000000 0.000000 0.000000
										}
									}
								}
								JOINT RThumb
								{
									OFFSET 0.000000 0.000000 0.000000
									CHANNELS 3 Zrotation Yrotation Xrotation
									End Site
									{
										OFFSET 0.000000 0.000000 0.000000
									}
								}
							}
						}
					}
				}
			}
		}
	}
}
}
MOTION
Frames: 15
Frame Time: 0.008333
0.191002 17.456741 -0.750683 136.665532 -85.590984 -126.451663 -3.488264 -2.215305 -4.336729 -1.348619 -2.118191 -3.480825 -6.399647 -2.223059 1.183083 9.887991 -9.765983 -7.794259 -3.394466 -0.263947 -0.027584 0.000000 0.000000 0.000000 -1.590230 7.929057 1.227438 -68.733338 1.304043 3.502892 -3.321262 -24.891042 0.005467 7.184923 -3.875265 -0.247392 -0.099783 0.019867 -0.000000 0.000000 0.000000 0.000000 0.000000 0.000000 0.000000 15.653562 -6.912601 0.470743 73.761835 7.935881 0.862330 3.438242 21.878516 0.016826 1.713292 8.461116 0.122923 0.083282 -0.106208 0.000000 0.000000 0.000000 0.000000 0.000000 0.000000 0.000000 
0.245782 17.459796 -0.782030 133.593893 -85.542302 -123.682972 -3.713679 -2.197305 -3.833963 -1.396428 -2.070179 -3.401771 -6.376927 -2.172691 1.105317 9.815705 -9.626782 -7.811925 -3.373940 -0.260996 -0.040166 0.000000 0.000000 0.000000 -1.600789 7.807595 1.298578 -68.723369 1.156643 3.323754 -3.341718 -24.787600 0.005211 6.999550 -3.824065 -0.237998 -0.099543 0.021550 -0.000000 0.000000 0.000000 0.000000 0.000000 0.000000 0.000000 15.474789 -6.721552 0.525047 73.906426 8.082149 1.137638 3.410341 22.042178 0.016519 1.754057 8.309374 0.123815 0.082001 -0.107452 0.000000 0.000000 0.000000 0.000000 0.000000 0.000000 0.000000 
0.304149 17.460853 -0.810037 130.571852 -85.502530 -121.025689 -3.911382 -2.161425 -3.236653 -1.441447 -2.005900 -3.310026 -6.355831 -2.105028 1.007664 9.739462 -9.469753 -7.828484 -3.356656 -0.258147 -0.053891 0.000000 0.000000 0.000000 -1.628888 7.632474 1.378639 -68.741507 0.975108 3.143340 -3.358250 -24.669404 0.004898 6.808345 -3.766397 -0.228204 -0.098936 0.023499 -0.000000 0.000000 0.000000 0.000000 0.000000 0.000000 0.000000 15.298213 -6.499464 0.593168 73.990350 8.216530 1.493034 3.379615 22.297260 0.016233 1.794465 8.172687 0.124907 0.080569 -0.109040 0.000000 0.000000 0.000000 0.000000 0.000000 0.000000 0.000000 
0.365093 17.459887 -0.834569 127.598557 -85.474544 -118.472234 -4.079072 -2.108944 -2.560557 -1.482559 -1.927316 -3.207041 -6.336052 -2.022130 0.896503 9.661833 -9.309475 -7.845209 -3.342564 -0.255418 -0.068970 0.000000 0.000000 0.000000 -1.673373 7.418113 1.463434 -68.788836 0.755978 2.975769 -3.370223 -24.525940 0.004552 6.625786 -3.711158 -0.219015 -0.097980 0.025618 -0.000000 0.000000 0.000000 0.000000 0.000000 0.000000 0.000000 15.130108 -6.264369 0.672087 74.003946 8.356054 1.940652 3.347918 22.617651 0.015998 1.828342 8.070789 0.125900 0.079115 -0.110940 0.000000 0.000000 0.000000 0.000000 0.000000 0.000000 0.000000 
0.427348 17.457147 -0.855715 124.684307 -85.457689 -116.023018 -4.217135 -2.041580 -1.823032 -1.519389 -1.836458 -3.095504 -6.318389 -1.926263 0.774656 9.585064 -9.145141 -7.857686 -3.332824 -0.252991 -0.084039 0.000000 0.000000 0.000000 -1.735464 7.170789 1.550095 -68.860698 0.513504 2.831406 -3.376786 -24.361404 0.004191 6.465087 -3.661201 -0.210926 -0.096664 0.027757 -0.000000 0.000000 0.000000 0.000000 0.000000 0.000000 0.000000 14.977900 -6.018631 0.759023 73.939213 8.497763 2.478362 3.315862 22.988525 0.015822 1.844498 8.016229 0.126294 0.077749 -0.113103 0.000000 0.000000 0.000000 0.000000 0.000000 0.000000 0.000000 
0.489640 17.452930 -0.873765 121.849083 -85.449000 -113.687298 -4.328617 -1.961934 -1.048248 -1.552071 -1.735969 -2.979794 -6.303550 -1.820446 0.643380 9.509919 -8.964399 -7.857916 -3.328465 -0.251090 -0.096625 0.000000 0.000000 0.000000 -1.813714 6.896482 1.636372 -68.953965 0.269823 2.716130 -3.377591 -24.180571 0.003831 6.336143 -3.619975 -0.204539 -0.094995 0.029766 -0.000000 0.000000 0.000000 0.000000 0.000000 0.000000 0.000000 14.844118 -5.752612 0.850546 73.799210 8.625964 3.060847 3.284448 23.391370 0.015710 1.844530 8.015359 0.126490 0.076474 -0.115475 0.000000 0.000000 0.000000 0.000000 0.000000 0.000000 0.000000 
0.550507 17.447638 -0.889203 119.112856 -85.442080 -111.469684 -4.421127 -1.873644 -0.263677 -1.581607 -1.629118 -2.863624 -6.291803 -1.708214 0.509023 9.440004 -8.772631 -7.844304 -3.329656 -0.249801 -0.105888 0.000000 0.000000 0.000000 -1.906342 6.611908 1.718246 -69.063637 0.036669 2.639211 -3.373049 -23.984169 0.003490 6.245800 -3.591230 -0.200055 -0.093026 0.031496 -0.000000 0.000000 0.000000 0.000000 0.000000 0.000000 0.000000 14.735972 -5.476301 0.942395 73.587399 8.748340 3.677865 3.254794 23.793600 0.015656 1.818673 8.071797 0.125587 0.075421 -0.117941 0.000000 0.000000 0.000000 0.000000 0.000000 0.000000 0.000000 
0.608543 17.441759 -0.902655 116.503686 -85.429042 -109.381664 -4.504696 -1.780799 0.502145 -1.609614 -1.519499 -2.751372 -6.283644 -1.593468 0.376062 9.378685 -8.567337 -7.813532 -3.336612 -0.249229 -0.110461 0.000000 0.000000 0.000000 -2.010106 6.330156 1.792820 -69.185034 -0.168424 2.604958 -3.364051 -23.775610 0.003185 6.195899 -3.577209 -0.197770 -0.090816 0.032806 -0.000000 0.000000 0.000000 0.000000 0.000000 0.000000 0.000000 14.658572 -5.191172 1.030631 73.314320 8.861852 4.295308 3.227788 24.167610 0.015647 1.766369 8.179575 0.123485 0.074632 -0.120366 0.000000 0.000000 0.000000 0.000000 0.000000 0.000000 0.000000 
0.662555 17.435769 -0.914784 114.049401 -85.401860 -107.434987 -4.590798 -1.687634 1.222424 -1.638104 -1.410808 -2.646902 -6.279559 -1.480133 0.249573 9.330189 -8.350537 -7.764752 -3.349254 -0.249425 -0.109637 0.000000 0.000000 0.000000 -2.120483 6.064922 1.857362 -69.313857 -0.331372 2.615180 -3.351846 -23.558219 0.002929 6.184666 -3.578326 -0.197486 -0.088440 0.033581 -0.000000 0.000000 0.000000 0.000000 0.000000 0.000000 0.000000 14.617929 -4.903115 1.111631 72.993843 8.970279 4.887725 3.204207 24.484509 0.015665 1.688155 8.327746 0.119984 0.074141 -0.122601 0.000000 0.000000 0.000000 0.000000 0.000000 0.000000 0.000000 
0.711557 17.430097 -0.926263 111.777655 -85.352797 -105.641634 -4.691192 -1.598136 1.873654 -1.669207 -1.306559 -2.553532 -6.279848 -1.371885 0.134216 9.298600 -8.126518 -7.699011 -3.367088 -0.250371 -0.103262 0.000000 0.000000 0.000000 -2.232586 5.827848 1.909781 -69.446716 -0.440174 2.669931 -3.337910 -23.335549 0.002737 6.206124 -3.593467 -0.198902 -0.085976 0.033733 -0.000000 0.000000 0.000000 0.000000 0.000000 0.000000 0.000000 14.618387 -4.619620 1.182628 72.641837 9.079611 5.431989 3.184693 24.718252 0.015696 1.587248 8.501355 0.114884 0.073961 -0.124499 0.000000 0.000000 0.000000 0.000000 0.000000 0.000000 0.000000 
0.754803 17.425086 -0.937598 109.721952 -85.276904 -104.019962 -4.814064 -1.515742 2.434803 -1.704411 -1.210001 -2.474518 -6.284637 -1.272109 0.032913 9.286484 -7.900915 -7.617840 -3.389382 -0.252026 -0.091325 0.000000 0.000000 0.000000 -2.341918 5.621832 1.948758 -69.582307 -0.477175 2.760673 -3.323437 -23.117697 0.002619 6.249320 -3.619197 -0.201618 -0.083476 0.033198 -0.000000 0.000000 0.000000 0.000000 0.000000 0.000000 0.000000 14.661127 -4.348487 1.242237 72.277468 9.195387 5.898339 3.170151 24.848568 0.015732 1.476399 8.678633 0.108784 0.074039 -0.125929 0.000000 0.000000 0.000000 0.000000 0.000000 0.000000 0.000000 
0.792540 17.420930 -0.949465 107.878533 -85.164704 -102.572499 -4.975631 -1.442450 2.913172 -1.746962 -1.122179 -2.407853 -6.294064 -1.181669 -0.052196 9.298564 -7.677620 -7.525551 -3.415269 -0.254243 -0.075167 0.000000 0.000000 0.000000 -2.438433 5.458007 1.974834 -69.719598 -0.456666 2.894790 -3.310212 -22.894929 0.002575 6.307255 -3.651563 -0.205133 -0.081040 0.032029 -0.000000 0.000000 0.000000 0.000000 0.000000 0.000000 0.000000 14.749652 -4.094014 1.289719 71.915372 9.327642 6.287693 3.159290 24.862716 0.015747 1.350202 8.850627 0.100984 0.074368 -0.126845 0.000000 0.000000 0.000000 0.000000 0.000000 0.000000 0.000000 
0.824466 17.417625 -0.961964 106.291312 -85.017020 -101.330801 -5.174805 -1.379543 3.293895 -1.796489 -1.044738 -2.356670 -6.307392 -1.102361 -0.122490 9.332076 -7.459382 -7.423116 -3.443390 -0.256934 -0.054722 0.000000 0.000000 0.000000 -2.520228 5.324513 1.988523 -69.861537 -0.352190 3.054043 -3.298619 -22.686107 0.002610 6.362823 -3.684880 -0.208649 -0.078674 0.030208 -0.000000 0.000000 0.000000 0.000000 0.000000 0.000000 0.000000 14.874358 -3.857959 1.326242 71.577554 9.474044 6.551277 3.153414 24.754434 0.015751 1.235698 8.993662 0.093382 0.074785 -0.127219 0.000000 0.000000 0.000000 0.000000 0.000000 0.000000 0.000000 
0.851151 17.415108 -0.975348 104.962692 -84.831085 -100.305844 -5.416901 -1.327054 3.590626 -1.853973 -0.977289 -2.318040 -6.323805 -1.033564 -0.177115 9.387425 -7.258316 -7.317516 -3.472217 -0.259868 -0.032151 0.000000 0.000000 0.000000 -2.582183 5.223336 1.990820 -70.010087 -0.176946 3.240945 -3.289488 -22.487258 0.002719 6.405772 -3.714061 -0.211563 -0.076429 0.027823 -0.000000 0.000000 0.000000 0.000000 0.000000 0.000000 0.000000 15.031902 -3.651089 1.353106 71.275225 9.650893 6.698773 3.151816 24.519612 0.015734 1.129897 9.101789 0.085881 0.075297 -0.127100 0.000000 0.000000 0.000000 0.000000 0.000000 0.000000 0.000000 
0.873349 17.413159 -0.989801 103.885477 -84.603608 -99.501898 -5.707185 -1.283768 3.820702 -1.920519 -0.918208 -2.290124 -6.342843 -0.973598 -0.222210 9.462098 -7.066529 -7.208132 -3.501001 -0.262963 -0.007627 0.000000 0.000000 0.000000 -2.617960 5.137871 1.985281 -70.168205 0.075144 3.446804 -3.283101 -22.306219 0.002890 6.423904 -3.733015 -0.212976 -0.074303 0.024963 -0.000000 0.000000 0.000000 0.000000 0.000000 0.000000 0.000000 15.213580 -3.461639 1.373368 71.023073 9.845948 6.692061 3.153247 24.173260 0.015688 1.046311 9.166173 0.079680 0.075716 -0.126624 0.000000 0.000000 0.000000 0.000000 0.000000 0.000000 0.000000 
